<?xml version="1.0" encoding="utf-8"?>
<!-- Generator: Adobe Illustrator 18.0.0, SVG Export Plug-In . SVG Version: 6.00 Build 0)  -->
<!DOCTYPE svg PUBLIC "-//W3C//DTD SVG 1.1//EN" "http://www.w3.org/Graphics/SVG/1.1/DTD/svg11.dtd">
<svg version="1.1" xmlns="http://www.w3.org/2000/svg" xmlns:xlink="http://www.w3.org/1999/xlink" x="0px" y="0px" width="800px"
	 height="600px" viewBox="0 0 800 600" enable-background="new 0 0 800 600" xml:space="preserve">
<g id="Background">
	<rect fill="#FFFFFF" width="800" height="600"/>
</g>
<g id="Object">
	<path fill="#F287B7" d="M560.3,559.9c-41.1,0-56.2-41.9-123.7-47.4c-52.4-4.3-76.4,19.4-143.9,22.4c-72.4,3.2-82.5-17.7-167-33.9
		C41.2,484.8,0,519.3,0,519.3V45.6c149.9-33.2,191.7,90.6,281.6,170c50.3,44.4,141,41.4,232.3,20.1c119.8-28,162.9,47.3,162.9,47.3
		s8.2-0.5,10.7,35s-17.6,63.4-26.7,113.8s-41.1,80.3-66.4,93.6c-25.3,13.3-30.7,19.9-32.4,26C560.4,557.4,560.3,559.9,560.3,559.9z"
		/>
	<g>
		<g>
			<path fill="#D95293" d="M222.3,366.4c24.7-8.7,48.1-27,61.9-28.6s9.3,13.2,9.3,13.2s18.3-7.9,49.1-28.1
				c30.8-20.1,27.2,12.5,27.2,12.5s14.9-5,34.9-20.3c20-15.3,18.1,6.4,18.1,6.4s14.3-1.2,51.5-27.9s33.4,11.2,30.6,24.9
				c0,0,8.7-2.6,28.9-15.2s33.8,16,16.5,43c0,0-105.4,14.1-194.6,16.4C266.5,365.2,222.3,366.4,222.3,366.4z"/>
			<path fill="#D95293" d="M25.8,333.2c10.5-1.7,41.9-28.9,54.1-29.2s6.4,11.7,6.4,11.7s10.6-1.7,30.6-18.4s18.1,2.6,18.1,2.6
				s7.9-3.8,26.9-23c19-19.3,29.2,1.3,24,20.2c0,0,6.2-5.9,16-13.7s17.4,3.1,7,23.9c0,0-48.4,12-87.9,17.6
				C59.9,333.5,25.8,333.2,25.8,333.2z"/>
		</g>
		<path fill="#EF5BA1" d="M660.9,431.7c6.4-35.6,18.3-60,23.9-83.8C358.8,324.6,73.7,379.9,0,395.9v123.5c0,0,41.2-34.6,125.7-18.3
			c84.5,16.3,94.5,37.1,167,33.9c67.6-3,91.5-26.7,143.9-22.4c67.5,5.5,82.6,47.4,123.7,47.4c0,0,0.1-2.6,1.8-8.6
			c1.7-6,7-12.7,32.4-26C619.8,512,651.8,482.1,660.9,431.7z"/>
		<path fill="#FFFFFF" d="M150.9,412.5c-17.2-7.5-14-25.7-6.4-42.3C75.9,380.2,25.4,390.3,0,395.9v123.5c0,0,41.2-34.6,125.7-18.3
			c84.5,16.3,94.5,37.1,167,33.9c67.6-3,91.5-26.7,143.9-22.4c67.5,5.5,82.6,47.4,123.7,47.4c0,0,0.1-2.6,1.8-8.6
			c1.7-6,7-12.7,32.4-26c21.9-11.5,48.9-35.5,61.6-74.5C413.2,449.5,218.4,441.8,150.9,412.5z"/>
		<path fill="#F7941E" d="M646.9,472.5c-265-3.3-483.9-21.4-511.1-60c-8.2-11.7-5-29.4,5.8-41.9C74.4,380.5,25,390.4,0,395.9v123.5
			c0,0,41.2-34.6,125.7-18.3c84.5,16.3,94.5,37.1,167,33.9c67.6-3,91.5-26.7,143.9-22.4c67.5,5.5,82.6,47.4,123.7,47.4
			c0,0,0.1-2.6,1.8-8.6c1.7-6,7-12.7,32.4-26C612,516.1,632.7,498.9,646.9,472.5z"/>
		<g>
			<path fill="#F15A29" d="M497.6,531.7c25.2,1.9,51.3,3.4,78.1,4.6c1.3-0.9,2.8-1.8,4.4-2.8c-30.5-1.3-60.2-3.1-88.7-5.3
				C493.5,529.3,495.6,530.5,497.6,531.7z"/>
			<path fill="#F15A29" d="M122.5,373.5c-9.2,15.5-12.1,31.5-8.3,46.8c8.9,35.9,74.5,66.2,189.9,87.8c22.4,4.2,46.5,8,72.1,11.4
				c2.6-0.7,5.2-1.4,7.8-2c-28.3-3.6-54.9-7.7-79.4-12.3c-55.5-10.4-99.8-22.8-131.6-37.1c-32.8-14.7-51.6-31-55.9-48.4
				c-4.4-17.9,1.3-34,9.4-46.7C125.2,373,123.9,373.3,122.5,373.5z"/>
			<path fill="#F15A29" d="M27.7,422.2c3.9-12.7,10.2-24.8,17.3-35.5c-1.4,0.3-2.7,0.5-4.1,0.8c-6.5,10.3-12.4,21.7-16.1,33.8
				c-7.7,25-4.9,53.2,7.9,82.3c1-0.3,1.9-0.6,2.9-0.9C23,474.2,20.2,446.6,27.7,422.2z"/>
			<path fill="#F15A29" d="M130.5,502c-14.3-10.6-26.1-21.4-35.1-32c-15.5-18.4-22-35.8-19.3-51.9c2.6-15.3,8.9-28.6,16.1-39.7
				c-1.3,0.2-2.7,0.4-4,0.7c-6.8,10.9-12.6,23.9-15.1,38.5c-2.9,17,3.8,35.2,19.9,54.3c8.1,9.6,18.4,19.2,30.8,28.8
				c0.6,0.1,1.2,0.2,1.9,0.3C127.3,501.3,128.9,501.7,130.5,502z"/>
		</g>
		<circle fill="#FFFFFF" cx="130.5" cy="192.4" r="21.7"/>
	</g>
	<g>
		<path fill="#1867A5" d="M663.5,418.4c-4.6-0.8-19.1-3.7-25.5,20c-6.9,25.2-10.8,39.1-16.7,50s-52.2,50.3-52.2,50.3l2.1,4.4
			c0,0,46.3-16.9,71-41.6c24.7-24.7,33.7-47,35.5-61.6C678.7,431.6,673,420.1,663.5,418.4z"/>
		<path fill="#282F39" d="M685.6,356.5c9.3-8.4,18.5,3,30.4,41c8.9,28.6,20.3-33.7,20.3-33.7l5.1,0.9c0,0,1,31.5-7.1,51.6
			c-11,27.4-42.3-10.9-51.2-33.2C676.8,367.4,680.6,360.9,685.6,356.5z"/>
		<path fill="#FFDE17" d="M655.8,331.4c0,0,16.3,2.6,28.4,9c12.1,6.4,14.9,11.1,18.4,20.4c3.5,9.4,9.2,21.8,0,27.8
			c-9.2,6-22.4,29.4-22.7,46.1c0,0-28.7,0-43.6-18.4c0,0,12.2-4.6,12.8-32.3C649.3,370.6,651.5,341.1,655.8,331.4z"/>
		<g>
			<path fill="#FFDE17" d="M691.9,300.3c1-4.7-0.8-12.8-10.3-16.3c-13.1-4.8-19.3,9.3-25.3,9.8c-6,0.6-7.5-5.2-17.6-2.9
				c-7.2,1.7-11.4,9.2-7.8,13.7c4.6,5.8,9.9,0.8,19.6,8.5C664.7,324.4,687.8,320.7,691.9,300.3z"/>
			<path fill="#ED1C24" d="M686.2,296.7c0,0-5.1-1.6-6.6,2.7c-1.4,4.3,3.3,6.6,3.3,6.6S688,303.6,686.2,296.7z"/>
			<path fill="#282F39" d="M676.8,339.4c13.4-15.7-10.8-42.7,20.4-42.7c14.6,0,14.2,9.5,13.8,23c-0.4,13.5-12.8,6.2-13.5,10.1
				c-2.1,11.4-7.3,19.2-7.3,19.2L676.8,339.4z"/>
			<path fill="#FFDE17" d="M683.1,325.1c1.8-1.3,4.4-5.2,4.4-7.2c0-2-5.4-4.5-3.3-6.9c2.1-2.4,4.8,1.8,6.4,0.9
				c1.6-0.8,5.2-6.1,3.2-10.2c-2-4,0.5-1.1,8.7,1.9c8.2,3,15.7,3.2,13.8,0.3c-1.9-3-2.8-8.7-9.9-11.4c-7-2.7-17.9-1.1-20.6,1.4
				c-2.7,2.4-2.4,5.3-3.4,6.9c-0.9,1.6-4.2,3.7-4.2,9.3S679.7,327.4,683.1,325.1z"/>
		</g>
		<path fill="#282F39" d="M703.8,363.9c-0.4-1-0.8-2.1-1.2-3c-3.5-9.4-6.4-14.1-18.4-20.4c-3.8-2-7.8-3.4-11.6-4.8
			c1.5,3.4,3.5,8.5,5.8,17.3C681.8,366.5,699.1,371.7,703.8,363.9z"/>
		<path fill="#1C75BC" d="M636.3,416.4c9.1-7.5,91.1-4.6,100.2,13.5c9.1,18.1-45,66.6-45,66.6l-3.7-3.5c0,0,23.7-44.6,23.3-49.9
			c-0.4-5.3-48.3,11.7-68.8,7.8S626,424.9,636.3,416.4z"/>
		<path fill="#282F39" d="M691.5,496.4c0,0-2.8,5-3.2,8.5s0,8.8-1.5,8.8c-1.5,0-4.7-7.8-4.2-11.2c0.5-3.4-1-5.2-0.1-7.6
			c0.9-2.4,5.3-2,5.3-2L691.5,496.4z"/>
		<path fill="#282F39" d="M571.2,543.1c0,0-5.1,4.6-6.9,8s-1.8,8.8-4,8.9c-2.2,0.1-3-8.6-1.2-12.1c1.9-3.5,1.2-5.8,2.7-8.3
			s7.2-0.9,7.2-0.9L571.2,543.1z"/>
		<path fill="#282F39" d="M736.3,364c0,0-1.9-0.6-1.5-3.2c0.4-2.6-0.2-5.5,0.7-5.8c0.9-0.3,1.5,3.2,1.5,3.2s0-8.3,1.1-9.1
			s6.6,6.4,3.3,15.7L736.3,364z"/>
		<g>
			<g>
				<g>
					<path fill="#282F39" d="M668.3,341.2c6.4-14.4-43-12-58.3-3.4c-23.6,13.2-44.5,47.3-44.5,47.3l4,3c0,0,30.9-27.4,49-32.9
						C632.1,351,657.9,364.7,668.3,341.2z"/>
				</g>
				<path fill="#282F39" d="M569.5,388.1c0,0,1.3,1.4-0.2,3.4s-2.4,4.8-3.3,4.6c-0.9-0.2,0.2-3.4,0.2-3.4s-3.9,7.1-5.2,7.3
					s-2.7-8.6,4.5-14.9L569.5,388.1z"/>
			</g>
		</g>
	</g>
</g>
<g id="Text">
</g>
</svg>
